# Blender 4.0.0
# www.blender.org
mtllib amazon box.mtl
o Cube
v -0.464400 -0.196000 0.389136
v -0.464400 -0.190000 0.395136
v -0.470400 -0.190000 0.389136
v -0.464400 -0.194243 0.393379
v -0.467864 -0.193464 0.392600
v -0.468643 -0.190000 0.393379
v -0.468643 -0.194243 0.389136
v -0.464400 0.190000 0.395136
v -0.464400 0.196000 0.389136
v -0.470400 0.190000 0.389136
v -0.464400 0.194243 0.393379
v -0.467864 0.193464 0.392600
v -0.468643 0.194243 0.389136
v -0.468643 0.190000 0.393379
v -0.464400 -0.196000 -0.389136
v -0.470400 -0.190000 -0.389136
v -0.464400 -0.190000 -0.395136
v -0.468643 -0.194243 -0.389136
v -0.467864 -0.193464 -0.392600
v -0.468643 -0.190000 -0.393379
v -0.464400 -0.194243 -0.393379
v -0.464400 0.196000 -0.389136
v -0.464400 0.190000 -0.395136
v -0.470400 0.190000 -0.389136
v -0.464400 0.194243 -0.393379
v -0.467864 0.193464 -0.392600
v -0.468643 0.190000 -0.393379
v -0.468643 0.194243 -0.389136
v 0.464400 -0.196000 0.389136
v 0.470400 -0.190000 0.389136
v 0.464400 -0.190000 0.395136
v 0.468643 -0.194243 0.389136
v 0.467864 -0.193464 0.392600
v 0.468643 -0.190000 0.393379
v 0.464400 -0.194243 0.393379
v 0.464400 0.196000 0.389136
v 0.464400 0.190000 0.395136
v 0.470400 0.190000 0.389136
v 0.464400 0.194243 0.393379
v 0.467864 0.193464 0.392600
v 0.468643 0.190000 0.393379
v 0.468643 0.194243 0.389136
v 0.464400 -0.196000 -0.389136
v 0.464400 -0.190000 -0.395136
v 0.470400 -0.190000 -0.389136
v 0.464400 -0.194243 -0.393379
v 0.467864 -0.193464 -0.392600
v 0.468643 -0.190000 -0.393379
v 0.468643 -0.194243 -0.389136
v 0.464400 0.196000 -0.389136
v 0.470400 0.190000 -0.389136
v 0.464400 0.190000 -0.395136
v 0.468643 0.194243 -0.389136
v 0.467864 0.193464 -0.392600
v 0.468643 0.190000 -0.393379
v 0.464400 0.194243 -0.393379
vn -0.0000 -0.0000 1.0000
vn 1.0000 -0.0000 -0.0000
vn -0.0000 1.0000 -0.0000
vn -1.0000 -0.0000 -0.0000
vn -0.0000 -0.0000 -1.0000
vn -0.3251 -0.8881 0.3251
vn -0.3251 -0.3251 0.8881
vn -0.8881 -0.3251 0.3251
vn -0.3251 0.3251 0.8881
vn -0.3251 0.8881 0.3251
vn -0.8881 0.3251 0.3251
vn -0.3251 -0.8881 -0.3251
vn -0.8881 -0.3251 -0.3251
vn -0.3251 -0.3251 -0.8881
vn -0.3251 0.8881 -0.3251
vn -0.3251 0.3251 -0.8881
vn -0.8881 0.3251 -0.3251
vn 0.3251 -0.8881 0.3251
vn 0.8881 -0.3251 0.3251
vn 0.3251 -0.3251 0.8881
vn 0.3251 0.8881 0.3251
vn 0.3251 0.3251 0.8881
vn 0.8881 0.3251 0.3251
vn 0.3251 -0.8881 -0.3251
vn 0.3251 -0.3251 -0.8881
vn 0.8881 -0.3251 -0.3251
vn 0.3251 0.8881 -0.3251
vn 0.8881 0.3251 -0.3251
vn 0.3251 0.3251 -0.8881
vn -0.3827 -0.9239 -0.0000
vn -0.9239 -0.3827 -0.0000
vn -0.3827 -0.0000 0.9239
vn -0.9239 -0.0000 0.3827
vn -0.3827 0.9239 -0.0000
vn -0.9239 0.3827 -0.0000
vn -0.3827 -0.0000 -0.9239
vn -0.9239 -0.0000 -0.3827
vn -0.0000 -0.9239 -0.3827
vn -0.0000 -0.3827 -0.9239
vn -0.0000 0.9239 -0.3827
vn -0.0000 0.3827 -0.9239
vn 0.9239 -0.0000 -0.3827
vn 0.3827 -0.0000 -0.9239
vn 0.3827 -0.9239 -0.0000
vn 0.9239 -0.3827 -0.0000
vn 0.3827 0.9239 -0.0000
vn 0.9239 0.3827 -0.0000
vn 0.3827 -0.0000 0.9239
vn 0.9239 -0.0000 0.3827
vn -0.0000 -0.9239 0.3827
vn -0.0000 -0.3827 0.9239
vn -0.0000 0.9239 0.3827
vn -0.0000 0.3827 0.9239
vn -0.0000 -1.0000 -0.0000
vt 0.963449 0.307782
vt 0.963635 0.665153
vt 0.432551 0.665902
vt 0.432365 0.308531
vt 0.365833 0.288412
vt 0.365833 0.627291
vt 0.019483 0.627290
vt 0.019483 0.288412
vt 0.825344 0.964935
vt 0.536072 0.964935
vt 0.536072 0.566266
vt 0.825344 0.566266
vt 0.385241 0.312188
vt 0.385241 0.663923
vt 0.013310 0.663923
vt 0.013310 0.312188
vt 0.954125 0.314108
vt 0.954693 0.667162
vt 0.430026 0.669445
vt 0.429458 0.316390
vt 0.528451 0.583459
vt 0.528451 0.580536
vt 0.527425 0.580536
vt 0.526673 0.583459
vt 0.428934 0.308536
vt 0.428932 0.305278
vt 0.432362 0.302888
vt 0.385241 0.306634
vt 0.386896 0.306634
vt 0.388108 0.312188
vt 0.432554 0.671546
vt 0.430573 0.671548
vt 0.429120 0.665907
vt 0.534203 0.566266
vt 0.534203 0.564492
vt 0.536072 0.563193
vt 0.388108 0.663924
vt 0.388108 0.667130
vt 0.385241 0.669478
vt 0.528451 0.962594
vt 0.526673 0.962594
vt 0.526673 0.964281
vt 0.528451 0.965517
vt 0.010443 0.312188
vt 0.010443 0.308981
vt 0.013310 0.306634
vt 0.954116 0.308533
vt 0.956073 0.308525
vt 0.957515 0.314093
vt 0.536072 0.968009
vt 0.534993 0.968009
vt 0.534203 0.964935
vt 0.958083 0.667147
vt 0.958088 0.670366
vt 0.954702 0.672737
vt 0.013310 0.669477
vt 0.011655 0.669477
vt 0.010443 0.663923
vt 0.803549 0.583459
vt 0.805326 0.583459
vt 0.805326 0.581771
vt 0.803549 0.580536
vt 0.016812 0.288412
vt 0.016812 0.285322
vt 0.019483 0.283061
vt 0.963446 0.302139
vt 0.965427 0.302136
vt 0.966879 0.307777
vt 0.825344 0.563193
vt 0.826423 0.563193
vt 0.827213 0.566266
vt 0.967066 0.665149
vt 0.967067 0.668407
vt 0.963638 0.670796
vt 0.019483 0.632641
vt 0.017941 0.632641
vt 0.016812 0.627290
vt 0.803549 0.962594
vt 0.803549 0.965517
vt 0.804575 0.965517
vt 0.805326 0.962594
vt 0.426069 0.316405
vt 0.426063 0.313187
vt 0.429449 0.310816
vt 0.365833 0.283061
vt 0.367375 0.283061
vt 0.368503 0.288412
vt 0.827213 0.964935
vt 0.827213 0.966710
vt 0.825344 0.968009
vt 0.368503 0.627290
vt 0.368503 0.630380
vt 0.365833 0.632641
vt 0.430035 0.675019
vt 0.428078 0.675028
vt 0.426636 0.669459
s 0
g Cube_Material
usemtl Material
f 31/1/1 37/2/1 8/3/1 2/4/1
f 45/5/2 51/6/2 38/7/2 30/8/2
f 50/9/3 22/10/3 9/11/3 36/12/3
f 3/13/4 10/14/4 24/15/4 16/16/4
f 17/17/5 23/18/5 52/19/5 44/20/5
f 1/21/6 4/22/6 5/23/6 7/24/6
f 2/4/7 6/25/7 5/26/7 4/27/7
f 3/13/8 7/28/8 5/29/8 6/30/8
f 8/3/9 11/31/9 12/32/9 14/33/9
f 9/11/10 13/34/10 12/35/10 11/36/10
f 10/14/11 14/37/11 12/38/11 13/39/11
f 15/40/12 18/41/12 19/42/12 21/43/12
f 16/16/13 20/44/13 19/45/13 18/46/13
f 17/17/14 21/47/14 19/48/14 20/49/14
f 22/10/15 25/50/15 26/51/15 28/52/15
f 23/18/16 27/53/16 26/54/16 25/55/16
f 24/15/17 28/56/17 26/57/17 27/58/17
f 29/59/18 32/60/18 33/61/18 35/62/18
f 30/8/19 34/63/19 33/64/19 32/65/19
f 31/1/20 35/66/20 33/67/20 34/68/20
f 36/12/21 39/69/21 40/70/21 42/71/21
f 37/2/22 41/72/22 40/73/22 39/74/22
f 38/7/23 42/75/23 40/76/23 41/77/23
f 43/78/24 46/79/24 47/80/24 49/81/24
f 44/20/25 48/82/25 47/83/25 46/84/25
f 45/5/26 49/85/26 47/86/26 48/87/26
f 50/9/27 53/88/27 54/89/27 56/90/27
f 51/6/28 55/91/28 54/92/28 53/93/28
f 52/19/29 56/94/29 54/95/29 55/96/29
f 15/40/30 1/21/30 7/24/30 18/41/30
f 18/46/31 7/28/31 3/13/31 16/16/31
f 2/4/32 8/3/32 14/33/32 6/25/32
f 6/30/33 14/37/33 10/14/33 3/13/33
f 9/11/34 22/10/34 28/52/34 13/34/34
f 13/39/35 28/56/35 24/15/35 10/14/35
f 23/18/36 17/17/36 20/49/36 27/53/36
f 27/58/37 20/44/37 16/16/37 24/15/37
f 43/78/38 15/40/38 21/43/38 46/79/38
f 46/84/39 21/47/39 17/17/39 44/20/39
f 22/10/40 50/9/40 56/90/40 25/50/40
f 25/55/41 56/94/41 52/19/41 23/18/41
f 51/6/42 45/5/42 48/87/42 55/91/42
f 55/96/43 48/82/43 44/20/43 52/19/43
f 29/59/44 43/78/44 49/81/44 32/60/44
f 32/65/45 49/85/45 45/5/45 30/8/45
f 50/9/46 36/12/46 42/71/46 53/88/46
f 53/93/47 42/75/47 38/7/47 51/6/47
f 37/2/48 31/1/48 34/68/48 41/72/48
f 41/77/49 34/63/49 30/8/49 38/7/49
f 1/21/50 29/59/50 35/62/50 4/22/50
f 4/27/51 35/66/51 31/1/51 2/4/51
f 36/12/52 9/11/52 11/36/52 39/69/52
f 39/74/53 11/31/53 8/3/53 37/2/53
f 15/40/54 43/78/54 29/59/54 1/21/54
